# Blender v3.1.2 OBJ File: ''
# www.blender.org
mtllib GreenPipe2.mtl
o GreenPipe_Cylinder.001
v -0.448709 0.234450 0.000643
v -0.224354 -0.315827 -0.387950
v -0.448709 -0.315827 0.000643
v -0.224354 0.234450 -0.387950
v 0.224354 -0.315827 -0.387949
v 0.224354 0.234450 -0.387949
v 0.448709 -0.315827 0.000643
v 0.448709 0.234450 0.000643
v 0.224354 -0.315827 0.389235
v -0.224354 0.234450 0.389236
v -0.547091 0.234450 0.000643
v 0.224354 0.234450 0.389236
v -0.224354 -0.315827 0.389235
v 0.273545 0.234450 0.474438
v -0.273545 0.519380 0.474438
v -0.273545 0.234450 0.474438
v 0.547091 0.234450 0.000643
v -0.273545 0.234450 -0.473151
v 0.273546 0.234450 -0.473151
v 0.315660 0.519952 -0.000016
v 0.158134 -0.315655 0.272827
v 0.158134 0.519952 0.272827
v 0.547091 0.519380 0.000643
v -0.273545 0.519380 -0.473151
v -0.547091 0.519380 0.000643
v 0.273545 0.519380 0.474438
v 0.273546 0.519380 -0.473151
v -0.156918 0.519952 -0.272858
v 0.158134 -0.315655 -0.272858
v 0.158134 0.519952 -0.272858
v -0.156918 -0.315655 0.272827
v -0.156918 0.519952 0.272827
v -0.314443 0.519952 -0.000016
v -0.156918 -0.315655 -0.272858
v 0.315660 -0.315655 -0.000016
v -0.314443 -0.315655 -0.000016
v 0.224352 -0.451651 -0.387947
v -0.224356 -0.451651 -0.387948
v -0.448711 -0.451651 0.000645
v -0.224356 -0.451651 0.389237
v 0.224352 -0.451651 0.389237
v -0.314445 -0.451479 -0.000014
v 0.000608 -0.315655 -0.000016
v -0.448711 -0.472193 0.000645
v -0.156920 -0.451479 -0.272856
v 0.158132 -0.472021 -0.272856
v 0.158132 -0.451479 -0.272856
v 0.224352 -0.472193 0.389238
v -0.224356 -0.472193 -0.387948
v 0.315658 -0.472021 -0.000014
v 0.315658 -0.451479 -0.000014
v -0.156920 -0.451479 0.272829
v -0.314445 -0.472021 -0.000014
v 0.158132 -0.451479 0.272829
v 0.448707 -0.451651 0.000645
v -0.156920 -0.472021 -0.272856
v 0.158132 -0.491977 -0.272856
v -0.224356 -0.472193 0.389238
v 0.224352 -0.492149 0.389238
v 0.224352 -0.472193 -0.387947
v -0.224356 -0.492149 -0.387948
v 0.315658 -0.491977 -0.000014
v -0.156920 -0.472021 0.272829
v -0.314445 -0.491977 -0.000014
v -0.156920 -0.491977 -0.272856
v 0.158132 -0.472021 0.272829
v 0.448707 -0.472193 0.000645
v -0.448711 -0.492149 0.000645
v -0.156920 -0.491977 0.272829
v -0.224356 -0.492149 0.389238
v 0.224352 -0.492149 -0.387947
v 0.448707 -0.492149 0.000645
v 0.158132 -0.491977 0.272829
vt 0.996271 0.653190
vt 0.661099 0.057644
vt 0.996271 0.057644
vt 0.997022 0.653190
vt 0.660106 0.057644
vt 0.997022 0.057644
vt 0.994866 0.653761
vt 0.662062 0.058215
vt 0.994866 0.058215
vt 0.997393 0.653190
vt 0.660300 0.057645
vt 0.997392 0.057644
vt 0.998504 0.654391
vt 0.658929 0.755069
vt 0.658530 0.654391
vt 0.654781 0.654391
vt 0.329233 0.058845
vt 0.654781 0.058845
vt 0.998504 0.058845
vt 0.658530 0.058845
vt 0.655399 0.655137
vt 0.326629 0.987091
vt 0.326629 0.655138
vt 0.660301 0.653190
vt 0.996997 0.753868
vt 0.660697 0.753869
vt 0.660105 0.653190
vt 0.996626 0.753868
vt 0.660501 0.753868
vt 0.329616 0.755070
vt 0.329234 0.654391
vt 0.661492 0.753868
vt 0.661099 0.653190
vt 0.662062 0.653761
vt 0.994475 0.754439
vt 0.662453 0.754439
vt 0.659111 0.479103
vt 0.661417 0.455670
vt 0.661417 0.479103
vt 0.992330 0.654554
vt 0.660787 0.986507
vt 0.660786 0.654554
vt 0.994179 0.654556
vt 0.662636 0.986509
vt 0.662636 0.654556
vt 0.992727 0.655258
vt 0.660051 0.987212
vt 0.660051 0.655258
vt 0.991454 0.653953
vt 0.658778 0.985906
vt 0.658778 0.653954
vt 0.992275 0.654581
vt 0.664576 0.986534
vt 0.664576 0.654581
vt 0.656805 0.479103
vt 0.659111 0.455670
vt 0.659111 0.479103
vt 0.321202 0.128691
vt 0.663123 0.294519
vt 0.321201 0.339281
vt 0.663753 0.479103
vt 0.666059 0.455670
vt 0.666059 0.479103
vt 0.654499 0.479103
vt 0.656805 0.455670
vt 0.320643 0.128806
vt 0.663691 0.294400
vt 0.320643 0.339396
vt 0.661432 0.479103
vt 0.663738 0.455670
vt 0.663738 0.479103
vt 0.664590 0.173350
vt 0.319740 0.339178
vt 0.319741 0.128589
vt 0.664024 0.173467
vt 0.320300 0.339061
vt 0.320301 0.128471
vt 0.663296 0.173414
vt 0.321037 0.339111
vt 0.321037 0.128521
vt 0.319901 0.128757
vt 0.664412 0.294453
vt 0.319900 0.339347
vt 0.652193 0.479103
vt 0.654499 0.455670
vt 0.997022 0.114923
vt 0.660106 0.114923
vt 0.997022 0.114923
vt 0.662062 0.115494
vt 0.994866 0.115494
vt 0.994866 0.115494
vt 0.998504 0.116124
vt 0.658530 0.116124
vt 0.998504 0.116124
vt 0.996271 0.114923
vt 0.661099 0.114923
vt 0.996271 0.114923
vt 0.329233 0.116124
vt 0.654781 0.116124
vt 0.654781 0.116124
vt 0.652193 0.455670
vt 0.654499 0.455670
vt 0.655962 0.470699
vt 0.654652 0.468429
vt 0.657273 0.468429
vt 0.658583 0.470699
vt 0.659893 0.468429
vt 0.658583 0.466159
vt 0.655962 0.466159
vt 0.661099 0.036178
vt 0.996271 0.036178
vt 0.996271 0.036178
vt 0.656805 0.455670
vt 0.659111 0.455670
vt 0.659111 0.455670
vt 0.329233 0.037379
vt 0.654781 0.037379
vt 0.654781 0.037379
vt 0.660106 0.036178
vt 0.997022 0.036178
vt 0.997022 0.036178
vt 0.661432 0.455670
vt 0.663738 0.455670
vt 0.663738 0.455670
vt 0.652193 0.455670
vt 0.654499 0.455670
vt 0.659111 0.455670
vt 0.661417 0.455670
vt 0.660300 0.114924
vt 0.997392 0.114923
vt 0.997392 0.114923
vt 0.663753 0.455670
vt 0.666059 0.455670
vt 0.656805 0.455670
vt 0.659111 0.455670
vt 0.329233 0.015894
vt 0.654781 0.015894
vt 0.654781 0.015894
vt 0.660106 0.014693
vt 0.997022 0.014693
vt 0.997022 0.014693
vt 0.661432 0.455670
vt 0.663738 0.455670
vt 0.652193 0.455670
vt 0.654499 0.455670
vt 0.656805 0.455670
vt 0.998504 0.037379
vt 0.658530 0.037379
vt 0.998504 0.037379
vt 0.661417 0.455670
vt 0.666059 0.455670
vt 0.662062 0.036749
vt 0.994866 0.036749
vt 0.994866 0.036749
vt 0.660300 0.036179
vt 0.997392 0.036178
vt 0.997392 0.036178
vt 0.748599 0.517964
vt 0.716314 0.527829
vt 0.710638 0.517964
vt 0.826645 0.520297
vt 0.794411 0.530106
vt 0.788683 0.520297
vt 0.710638 0.537743
vt 0.742894 0.528006
vt 0.748599 0.537743
vt 0.786738 0.537765
vt 0.754504 0.527989
vt 0.781158 0.527989
vt 0.748777 0.517964
vt 0.781033 0.527812
vt 0.754379 0.527812
vt 0.738177 0.601271
vt 0.819856 0.521796
vt 0.748011 0.521890
vt 0.661099 0.014693
vt 0.996271 0.014693
vt 0.996271 0.014693
vt 0.658530 0.015894
vt 0.998504 0.015894
vt 0.998504 0.015894
vt 0.659111 0.455670
vt 0.661417 0.455670
vt 0.663753 0.455670
vt 0.666059 0.455670
vt 0.662062 0.015264
vt 0.994866 0.015264
vt 0.994866 0.015264
vt 0.660300 0.014694
vt 0.997392 0.014693
vt 0.997392 0.014693
vt 0.998105 0.755069
vt 0.655399 0.987091
vt 0.654399 0.755069
vt 0.995878 0.753868
vt 0.659111 0.455670
vt 0.992330 0.986507
vt 0.994179 0.986509
vt 0.992727 0.987211
vt 0.991454 0.985906
vt 0.992275 0.986534
vt 0.663123 0.173247
vt 0.663753 0.455670
vt 0.663691 0.173128
vt 0.661432 0.455670
vt 0.664590 0.294622
vt 0.664023 0.294738
vt 0.663296 0.294686
vt 0.664412 0.173182
vt 0.660106 0.114923
vt 0.662062 0.115494
vt 0.658530 0.116124
vt 0.661099 0.114923
vt 0.329233 0.116124
vt 0.661099 0.036178
vt 0.329233 0.037379
vt 0.660106 0.036178
vt 0.660300 0.114924
vt 0.329233 0.015894
vt 0.660106 0.014693
vt 0.661432 0.455670
vt 0.652193 0.455670
vt 0.658530 0.037379
vt 0.662062 0.036749
vt 0.660300 0.036179
vt 0.742968 0.527829
vt 0.821065 0.530106
vt 0.716240 0.528006
vt 0.748777 0.537765
vt 0.786738 0.517964
vt 0.769360 0.601280
vt 0.661099 0.014693
vt 0.658530 0.015894
vt 0.659111 0.455670
vt 0.663753 0.455670
vt 0.662062 0.015264
vt 0.660300 0.014694
vn -0.8660 0.0000 -0.5000
vn 0.0000 0.0000 -1.0000
vn 0.8660 0.0000 -0.5000
vn 0.8660 -0.0000 0.5000
vn -0.0000 -1.0000 0.0000
vn 0.0000 -0.0000 1.0000
vn -0.8660 -0.0000 0.5000
vn 0.0012 1.0000 -0.0021
vn 0.0025 1.0000 -0.0000
vn 0.0012 1.0000 0.0021
vn -0.0012 1.0000 0.0021
vn -0.0025 1.0000 0.0000
vn -0.0012 1.0000 -0.0021
vn -0.5000 -0.0000 -0.8660
vn 0.5000 -0.0000 -0.8660
vn 1.0000 -0.0000 -0.0000
vn -0.5000 0.0000 0.8660
vn -1.0000 0.0000 0.0000
vn 0.5000 0.0000 0.8660
vn 0.0000 1.0000 0.0000
vn -0.2727 -0.8381 0.4724
vn -0.5455 -0.8381 0.0000
vn 0.5455 -0.8381 0.0000
vn 0.2727 -0.8381 0.4724
vn 0.0013 -1.0000 -0.0000
vn 0.2727 -0.8381 -0.4724
vn 0.0006 -1.0000 -0.0011
vn 0.0006 -1.0000 0.0011
vn -0.0006 -1.0000 0.0011
vn -0.0013 -1.0000 -0.0000
vn -0.2727 -0.8381 -0.4724
vn -0.0006 -1.0000 -0.0011
usemtl Material.005
s 1
f 1/1/1 2/2/1 3/3/1
f 4/4/2 5/5/2 2/6/2
f 6/7/3 7/8/3 5/9/3
f 8/10/4 9/11/4 7/12/4
f 10/13/5 11/14/5 1/15/5
f 12/16/6 13/17/6 9/18/6
f 13/19/7 1/15/7 3/20/7
f 14/21/6 15/22/6 16/23/6
f 12/24/5 17/25/5 14/26/5
f 6/27/5 18/28/5 19/29/5
f 12/16/5 16/30/5 10/31/5
f 1/1/5 18/32/5 4/33/5
f 8/34/5 19/35/5 17/36/5
f 20/37/1 21/38/1 22/39/1
f 19/40/3 23/41/3 17/42/3
f 11/43/1 24/44/1 18/45/1
f 16/46/7 25/47/7 11/48/7
f 17/49/4 26/50/4 14/51/4
f 18/52/2 27/53/2 19/54/2
f 28/55/6 29/56/6 30/57/6
f 27/58/8 20/59/9 23/60/9
f 22/61/2 31/62/2 32/63/2
f 33/64/4 34/65/4 28/55/4
f 23/66/9 22/67/10 26/68/10
f 30/69/7 35/70/7 20/71/7
f 32/72/11 25/73/12 15/74/11
f 33/75/12 24/76/13 25/77/12
f 28/78/13 27/79/8 24/80/13
f 26/81/10 32/82/11 15/83/11
f 32/84/3 36/85/3 33/64/3
f 2/86/14 37/87/15 38/88/14
f 7/89/16 37/90/15 5/91/15
f 13/92/17 39/93/18 40/94/17
f 3/95/18 38/96/14 39/97/18
f 13/98/17 41/99/19 9/100/19
f 31/101/15 42/102/16 36/85/16
f 21/103/20 35/104/20 43/105/20
f 31/106/20 21/103/20 43/105/20
f 36/107/20 31/106/20 43/105/20
f 34/108/20 36/107/20 43/105/20
f 29/109/20 34/108/20 43/105/20
f 35/104/20 29/109/20 43/105/20
f 38/110/14 44/111/18 39/112/18
f 45/113/19 46/114/17 47/115/17
f 40/116/17 48/117/19 41/118/19
f 37/119/15 49/120/14 38/121/14
f 47/122/17 50/123/18 51/124/18
f 52/125/15 53/126/16 42/102/16
f 35/70/18 47/122/17 51/124/18
f 21/38/14 51/127/18 54/128/14
f 9/129/19 55/130/16 7/131/16
f 31/62/15 54/132/14 52/133/15
f 34/65/19 47/115/17 29/56/17
f 36/85/16 45/113/19 34/65/19
f 56/134/19 57/135/21 46/114/17
f 58/136/17 59/137/19 48/138/19
f 60/139/15 61/140/14 49/141/14
f 46/142/17 62/143/22 50/123/18
f 63/144/15 64/145/23 53/126/16
f 53/126/16 65/146/24 56/134/19
f 40/147/17 44/148/18 58/149/17
f 51/127/18 66/150/14 54/128/14
f 54/132/14 63/151/15 52/133/15
f 55/152/16 60/153/15 37/154/15
f 41/155/19 67/156/16 55/157/16
f 42/102/16 56/134/19 45/113/19
f 68/158/25 69/159/26 70/160/27
f 61/161/28 64/162/23 68/163/25
f 71/164/29 65/165/24 61/166/28
f 72/167/30 73/168/31 62/169/22
f 59/170/32 69/171/26 73/172/31
f 71/173/29 62/174/22 57/175/21
f 49/176/14 68/177/18 44/178/18
f 44/179/18 70/180/17 58/181/17
f 50/182/18 73/183/31 66/150/14
f 66/184/14 69/185/26 63/151/15
f 67/186/16 71/187/15 60/188/15
f 48/189/19 72/190/16 67/191/16
f 1/1/1 4/33/1 2/2/1
f 4/4/2 6/27/2 5/5/2
f 6/7/3 8/34/3 7/8/3
f 8/10/4 12/24/4 9/11/4
f 10/13/5 16/192/5 11/14/5
f 12/16/6 10/31/6 13/17/6
f 13/19/7 10/13/7 1/15/7
f 14/21/6 26/193/6 15/22/6
f 12/24/5 8/10/5 17/25/5
f 6/27/5 4/4/5 18/28/5
f 12/16/5 14/194/5 16/30/5
f 1/1/5 11/195/5 18/32/5
f 8/34/5 6/7/5 19/35/5
f 20/37/1 35/196/1 21/38/1
f 19/40/3 27/197/3 23/41/3
f 11/43/1 25/198/1 24/44/1
f 16/46/7 15/199/7 25/47/7
f 17/49/4 23/200/4 26/50/4
f 18/52/2 24/201/2 27/53/2
f 28/55/6 34/65/6 29/56/6
f 27/58/8 30/202/8 20/59/9
f 22/61/2 21/203/2 31/62/2
f 33/64/4 36/85/4 34/65/4
f 23/66/9 20/204/9 22/67/10
f 30/69/7 29/205/7 35/70/7
f 32/72/11 33/206/12 25/73/12
f 33/75/12 28/207/13 24/76/13
f 28/78/13 30/208/8 27/79/8
f 26/81/10 22/209/10 32/82/11
f 32/84/3 31/101/3 36/85/3
f 2/86/14 5/210/15 37/87/15
f 7/89/16 55/211/16 37/90/15
f 13/92/17 3/212/18 39/93/18
f 3/95/18 2/213/14 38/96/14
f 13/98/17 40/214/17 41/99/19
f 31/101/15 52/125/15 42/102/16
f 38/110/14 49/215/14 44/111/18
f 45/113/19 56/134/19 46/114/17
f 40/116/17 58/216/17 48/117/19
f 37/119/15 60/217/15 49/120/14
f 47/122/17 46/142/17 50/123/18
f 52/125/15 63/144/15 53/126/16
f 35/70/18 29/205/17 47/122/17
f 21/38/14 35/196/18 51/127/18
f 9/129/19 41/218/19 55/130/16
f 31/62/15 21/203/14 54/132/14
f 34/65/19 45/113/19 47/115/17
f 36/85/16 42/102/16 45/113/19
f 56/134/19 65/146/24 57/135/21
f 58/136/17 70/219/17 59/137/19
f 60/139/15 71/220/15 61/140/14
f 46/142/17 57/221/21 62/143/22
f 63/144/15 69/222/26 64/145/23
f 53/126/16 64/145/23 65/146/24
f 40/147/17 39/223/18 44/148/18
f 51/127/18 50/182/18 66/150/14
f 54/132/14 66/184/14 63/151/15
f 55/152/16 67/224/16 60/153/15
f 41/155/19 48/225/19 67/156/16
f 42/102/16 53/126/16 56/134/19
f 68/158/25 64/226/23 69/159/26
f 61/161/28 65/227/24 64/162/23
f 71/164/29 57/228/21 65/165/24
f 72/167/30 59/229/32 73/168/31
f 59/170/32 70/230/27 69/171/26
f 71/173/29 72/231/30 62/174/22
f 49/176/14 61/232/14 68/177/18
f 44/179/18 68/233/18 70/180/17
f 50/182/18 62/234/22 73/183/31
f 66/184/14 73/235/31 69/185/26
f 67/186/16 72/236/16 71/187/15
f 48/189/19 59/237/19 72/190/16
